<mxfile host="www.draw.io" modified="2019-12-22T19:40:21.393Z" agent="Mozilla/5.0 (X11; Ubuntu; Linux x86_64; rv:71.0) Gecko/20100101 Firefox/71.0" etag="DqYa1_2aBmi8Ykhohu9r" version="12.4.3" type="github" pages="1">
  <diagram id="uhMjWXik6Yx-BJb2ZID2" name="Schema E-R e logico">
    <mxGraphModel dx="1221" dy="1522" grid="1" gridSize="10" guides="1" tooltips="1" connect="1" arrows="1" fold="1" page="1" pageScale="1" pageWidth="1169" pageHeight="827" math="0" shadow="0">
      <root>
        <mxCell id="0"/>
        <mxCell id="1" parent="0"/>
        <mxCell id="-CwcN6ZD3fl_PPB7evjk-37" style="edgeStyle=orthogonalEdgeStyle;rounded=0;orthogonalLoop=1;jettySize=auto;html=1;exitX=1;exitY=0.5;exitDx=0;exitDy=0;endArrow=none;endFill=0;fontSize=20;" parent="1" source="-CwcN6ZD3fl_PPB7evjk-8" target="-CwcN6ZD3fl_PPB7evjk-38" edge="1">
          <mxGeometry relative="1" as="geometry">
            <mxPoint x="920" y="260" as="targetPoint"/>
          </mxGeometry>
        </mxCell>
        <mxCell id="V-vhEgvPOVv-jiupzH60-1" style="edgeStyle=orthogonalEdgeStyle;rounded=1;orthogonalLoop=1;jettySize=auto;html=1;exitX=0.75;exitY=1;exitDx=0;exitDy=0;endArrow=oval;endFill=1;endSize=10;" parent="1" source="-CwcN6ZD3fl_PPB7evjk-8" edge="1">
          <mxGeometry relative="1" as="geometry">
            <mxPoint x="760" y="320" as="targetPoint"/>
          </mxGeometry>
        </mxCell>
        <mxCell id="-CwcN6ZD3fl_PPB7evjk-8" value="&lt;font style=&quot;font-size: 20px&quot;&gt;Competizione&lt;/font&gt;" style="rounded=0;whiteSpace=wrap;html=1;" parent="1" vertex="1">
          <mxGeometry x="640" y="240" width="160" height="40" as="geometry"/>
        </mxCell>
        <mxCell id="pbwnNEGYd-IY7YFEyke1-8" style="edgeStyle=orthogonalEdgeStyle;rounded=1;orthogonalLoop=1;jettySize=auto;html=1;entryX=1;entryY=0.5;entryDx=0;entryDy=0;endArrow=none;endFill=0;" parent="1" source="-CwcN6ZD3fl_PPB7evjk-12" target="pbwnNEGYd-IY7YFEyke1-6" edge="1">
          <mxGeometry relative="1" as="geometry"/>
        </mxCell>
        <mxCell id="pbwnNEGYd-IY7YFEyke1-10" style="edgeStyle=orthogonalEdgeStyle;rounded=1;orthogonalLoop=1;jettySize=auto;html=1;exitX=0.5;exitY=1;exitDx=0;exitDy=0;endArrow=oval;endFill=0;endSize=10;" parent="1" source="-CwcN6ZD3fl_PPB7evjk-12" edge="1">
          <mxGeometry relative="1" as="geometry">
            <mxPoint x="1100.142857142857" y="129.80952380952385" as="targetPoint"/>
          </mxGeometry>
        </mxCell>
        <mxCell id="-CwcN6ZD3fl_PPB7evjk-12" value="Disciplina" style="rounded=0;whiteSpace=wrap;html=1;fontSize=20;" parent="1" vertex="1">
          <mxGeometry x="1050" y="60" width="100" height="40" as="geometry"/>
        </mxCell>
        <mxCell id="-CwcN6ZD3fl_PPB7evjk-39" value="" style="edgeStyle=orthogonalEdgeStyle;rounded=0;orthogonalLoop=1;jettySize=auto;html=1;endArrow=none;endFill=0;fontSize=20;" parent="1" source="-CwcN6ZD3fl_PPB7evjk-38" target="-CwcN6ZD3fl_PPB7evjk-40" edge="1">
          <mxGeometry relative="1" as="geometry">
            <mxPoint x="1000" y="400" as="targetPoint"/>
          </mxGeometry>
        </mxCell>
        <mxCell id="-CwcN6ZD3fl_PPB7evjk-38" value="Svolta" style="rhombus;whiteSpace=wrap;html=1;fontSize=20;" parent="1" vertex="1">
          <mxGeometry x="920" y="220" width="160" height="80" as="geometry"/>
        </mxCell>
        <mxCell id="-CwcN6ZD3fl_PPB7evjk-40" value="&lt;font style=&quot;font-size: 20px&quot;&gt;Olimpiade universitaria&lt;/font&gt;" style="rounded=0;whiteSpace=wrap;html=1;" parent="1" vertex="1">
          <mxGeometry x="920" y="400" width="160" height="80" as="geometry"/>
        </mxCell>
        <mxCell id="b5MTkoH9KLdbnuGjaZCg-25" value="&lt;div&gt;(1,1)&lt;/div&gt;" style="text;html=1;strokeColor=none;fillColor=none;align=center;verticalAlign=middle;whiteSpace=wrap;rounded=0;" parent="1" vertex="1">
          <mxGeometry x="800" y="260" width="40" height="20" as="geometry"/>
        </mxCell>
        <mxCell id="b5MTkoH9KLdbnuGjaZCg-26" value="(1,n)" style="text;html=1;strokeColor=none;fillColor=none;align=center;verticalAlign=middle;whiteSpace=wrap;rounded=0;" parent="1" vertex="1">
          <mxGeometry x="1000" y="370" width="40" height="20" as="geometry"/>
        </mxCell>
        <mxCell id="LFXWD2qSY829Mt4aABdm-39" value="" style="endArrow=oval;html=1;endFill=1;endSize=10;" parent="1" edge="1">
          <mxGeometry width="50" height="50" relative="1" as="geometry">
            <mxPoint x="940" y="400" as="sourcePoint"/>
            <mxPoint x="940" y="360" as="targetPoint"/>
            <Array as="points"/>
          </mxGeometry>
        </mxCell>
        <mxCell id="LFXWD2qSY829Mt4aABdm-40" value="Anno" style="text;html=1;strokeColor=none;fillColor=none;align=center;verticalAlign=middle;whiteSpace=wrap;rounded=0;" parent="1" vertex="1">
          <mxGeometry x="920" y="330" width="40" height="20" as="geometry"/>
        </mxCell>
        <mxCell id="LFXWD2qSY829Mt4aABdm-41" value="" style="endArrow=oval;html=1;endFill=1;endSize=10;exitX=1;exitY=0.5;exitDx=0;exitDy=0;" parent="1" source="-CwcN6ZD3fl_PPB7evjk-12" edge="1">
          <mxGeometry width="50" height="50" relative="1" as="geometry">
            <mxPoint x="1180" y="200" as="sourcePoint"/>
            <mxPoint x="1180" y="80" as="targetPoint"/>
            <Array as="points"/>
          </mxGeometry>
        </mxCell>
        <mxCell id="LFXWD2qSY829Mt4aABdm-42" value="&lt;div&gt;Nome&lt;/div&gt;" style="text;html=1;strokeColor=none;fillColor=none;align=center;verticalAlign=middle;whiteSpace=wrap;rounded=0;" parent="1" vertex="1">
          <mxGeometry x="1190" y="70" width="40" height="20" as="geometry"/>
        </mxCell>
        <mxCell id="hW9gHvQl-x3xJsjcZOFR-2" style="edgeStyle=orthogonalEdgeStyle;rounded=0;orthogonalLoop=1;jettySize=auto;html=1;exitX=0.5;exitY=1;exitDx=0;exitDy=0;entryX=0.75;entryY=0;entryDx=0;entryDy=0;endArrow=none;endFill=0;" parent="1" source="pbwnNEGYd-IY7YFEyke1-6" target="-CwcN6ZD3fl_PPB7evjk-8" edge="1">
          <mxGeometry relative="1" as="geometry"/>
        </mxCell>
        <mxCell id="pbwnNEGYd-IY7YFEyke1-6" value="&lt;div&gt;Tipo&lt;/div&gt;" style="rhombus;whiteSpace=wrap;html=1;fontSize=20;" parent="1" vertex="1">
          <mxGeometry x="680" y="40" width="160" height="80" as="geometry"/>
        </mxCell>
        <mxCell id="pbwnNEGYd-IY7YFEyke1-11" value="&lt;div&gt;Regolamento&lt;/div&gt;" style="text;html=1;strokeColor=none;fillColor=none;align=center;verticalAlign=middle;whiteSpace=wrap;rounded=0;" parent="1" vertex="1">
          <mxGeometry x="1080" y="140" width="40" height="20" as="geometry"/>
        </mxCell>
        <mxCell id="hW9gHvQl-x3xJsjcZOFR-8" style="edgeStyle=orthogonalEdgeStyle;rounded=0;orthogonalLoop=1;jettySize=auto;html=1;exitX=1;exitY=0.5;exitDx=0;exitDy=0;endArrow=oval;endFill=1;strokeWidth=1;endSize=10;" parent="1" source="pbwnNEGYd-IY7YFEyke1-14" edge="1">
          <mxGeometry relative="1" as="geometry">
            <mxPoint x="1200" y="-180" as="targetPoint"/>
            <Array as="points">
              <mxPoint x="1190" y="-180"/>
              <mxPoint x="1190" y="-180"/>
            </Array>
          </mxGeometry>
        </mxCell>
        <mxCell id="pbwnNEGYd-IY7YFEyke1-14" value="&lt;div&gt;Categoria sport&lt;/div&gt;" style="rounded=0;whiteSpace=wrap;html=1;fontSize=20;" parent="1" vertex="1">
          <mxGeometry x="1040" y="-210" width="120" height="60" as="geometry"/>
        </mxCell>
        <mxCell id="pbwnNEGYd-IY7YFEyke1-15" value="(1,1)" style="text;html=1;strokeColor=none;fillColor=none;align=center;verticalAlign=middle;whiteSpace=wrap;rounded=0;shadow=0;glass=0;comic=0;fontSize=12;" parent="1" vertex="1">
          <mxGeometry x="720" y="220" width="40" height="20" as="geometry"/>
        </mxCell>
        <mxCell id="pbwnNEGYd-IY7YFEyke1-17" value="(1,n)" style="text;html=1;strokeColor=none;fillColor=none;align=center;verticalAlign=middle;whiteSpace=wrap;rounded=0;shadow=0;glass=0;comic=0;fontSize=12;" parent="1" vertex="1">
          <mxGeometry x="1010" y="60" width="40" height="20" as="geometry"/>
        </mxCell>
        <mxCell id="pbwnNEGYd-IY7YFEyke1-18" value="" style="endArrow=oval;html=1;strokeColor=#000000;strokeWidth=1;edgeStyle=orthogonalEdgeStyle;endFill=1;endSize=10;" parent="1" edge="1">
          <mxGeometry width="50" height="50" relative="1" as="geometry">
            <mxPoint x="730" y="200" as="sourcePoint"/>
            <mxPoint x="729.97" y="299.9" as="targetPoint"/>
            <Array as="points">
              <mxPoint x="839.97" y="199.9"/>
              <mxPoint x="839.97" y="299.9"/>
              <mxPoint x="729.97" y="299.9"/>
            </Array>
          </mxGeometry>
        </mxCell>
        <mxCell id="V-vhEgvPOVv-jiupzH60-2" value="Sesso" style="text;html=1;strokeColor=none;fillColor=none;align=center;verticalAlign=middle;whiteSpace=wrap;rounded=0;" parent="1" vertex="1">
          <mxGeometry x="740" y="340" width="40" height="20" as="geometry"/>
        </mxCell>
        <mxCell id="hW9gHvQl-x3xJsjcZOFR-4" style="edgeStyle=orthogonalEdgeStyle;rounded=0;orthogonalLoop=1;jettySize=auto;html=1;exitX=0.5;exitY=1;exitDx=0;exitDy=0;entryX=0.5;entryY=0;entryDx=0;entryDy=0;endArrow=none;endFill=0;" parent="1" source="hW9gHvQl-x3xJsjcZOFR-3" target="-CwcN6ZD3fl_PPB7evjk-12" edge="1">
          <mxGeometry relative="1" as="geometry"/>
        </mxCell>
        <mxCell id="hW9gHvQl-x3xJsjcZOFR-5" style="edgeStyle=orthogonalEdgeStyle;rounded=0;orthogonalLoop=1;jettySize=auto;html=1;exitX=0.5;exitY=0;exitDx=0;exitDy=0;entryX=0.5;entryY=1;entryDx=0;entryDy=0;endArrow=none;endFill=0;" parent="1" source="hW9gHvQl-x3xJsjcZOFR-3" target="pbwnNEGYd-IY7YFEyke1-14" edge="1">
          <mxGeometry relative="1" as="geometry"/>
        </mxCell>
        <mxCell id="hW9gHvQl-x3xJsjcZOFR-3" value="&lt;div&gt;&lt;font style=&quot;font-size: 20px&quot;&gt;Ha&lt;/font&gt;&lt;/div&gt;&lt;div&gt;&lt;font style=&quot;font-size: 20px&quot;&gt;sport&lt;br&gt;&lt;/font&gt;&lt;/div&gt;" style="rhombus;html=1;whiteSpace=wrap;spacingBottom=4;" parent="1" vertex="1">
          <mxGeometry x="1040" y="-70" width="120" height="70" as="geometry"/>
        </mxCell>
        <mxCell id="hW9gHvQl-x3xJsjcZOFR-9" value="Nome" style="text;html=1;strokeColor=none;fillColor=none;align=center;verticalAlign=middle;whiteSpace=wrap;rounded=0;" parent="1" vertex="1">
          <mxGeometry x="1210" y="-190" width="40" height="20" as="geometry"/>
        </mxCell>
        <mxCell id="hW9gHvQl-x3xJsjcZOFR-10" value="(0,1)" style="text;html=1;strokeColor=none;fillColor=none;align=center;verticalAlign=middle;whiteSpace=wrap;rounded=0;shadow=0;glass=0;comic=0;fontSize=12;" parent="1" vertex="1">
          <mxGeometry x="1100" y="40" width="40" height="20" as="geometry"/>
        </mxCell>
        <mxCell id="hW9gHvQl-x3xJsjcZOFR-11" value="(1,n)" style="text;html=1;strokeColor=none;fillColor=none;align=center;verticalAlign=middle;whiteSpace=wrap;rounded=0;shadow=0;glass=0;comic=0;fontSize=12;" parent="1" vertex="1">
          <mxGeometry x="1120" y="-150" width="40" height="20" as="geometry"/>
        </mxCell>
      </root>
    </mxGraphModel>
  </diagram>
</mxfile>
